<?xml version="1.0" encoding="utf-8"?>
<!-- Generator: Adobe Illustrator 15.0.0, SVG Export Plug-In . SVG Version: 6.00 Build 0)  -->
<!DOCTYPE svg PUBLIC "-//W3C//DTD SVG 1.1//EN" "http://www.w3.org/Graphics/SVG/1.1/DTD/svg11.dtd" [
	<!ENTITY ns_extend "http://ns.adobe.com/Extensibility/1.0/">
	<!ENTITY ns_ai "http://ns.adobe.com/AdobeIllustrator/10.0/">
	<!ENTITY ns_graphs "http://ns.adobe.com/Graphs/1.0/">
	<!ENTITY ns_vars "http://ns.adobe.com/Variables/1.0/">
	<!ENTITY ns_imrep "http://ns.adobe.com/ImageReplacement/1.0/">
	<!ENTITY ns_sfw "http://ns.adobe.com/SaveForWeb/1.0/">
	<!ENTITY ns_custom "http://ns.adobe.com/GenericCustomNamespace/1.0/">
	<!ENTITY ns_adobe_xpath "http://ns.adobe.com/XPath/1.0/">
]>
<svg version="1.1" id="Layer_1" xmlns:x="&ns_extend;" xmlns:i="&ns_ai;" xmlns:graph="&ns_graphs;"
	 xmlns="http://www.w3.org/2000/svg" xmlns:xlink="http://www.w3.org/1999/xlink" x="0px" y="0px" width="99.85px" height="17px"
	 viewBox="0 0 99.85 17" enable-background="new 0 0 99.85 17" xml:space="preserve">
<metadata>
	<sfw  xmlns="&ns_sfw;">
		<slices></slices>
		<sliceSourceBounds  x="370.575" y="289.318" width="99.664" height="16.682" bottomLeftOrigin="true"></sliceSourceBounds>
	</sfw>
</metadata>
<g>
	<path fill="#F03246" d="M0,15.424c0,0.381,0.066,0.633,0.202,0.76c0.134,0.127,0.384,0.19,0.748,0.19h3.274
		c0.363,0,0.613-0.063,0.747-0.19s0.202-0.379,0.202-0.76v-4.531h4.152c0.38,0,0.632-0.067,0.76-0.201
		c0.126-0.135,0.188-0.385,0.188-0.748V7.498c0-0.363-0.062-0.612-0.188-0.747c-0.127-0.135-0.38-0.202-0.76-0.202H5.173V4.817h4.39
		c0.38,0,0.633-0.067,0.759-0.202c0.128-0.134,0.19-0.383,0.19-0.747V1.424c0-0.364-0.062-0.613-0.19-0.747
		c-0.126-0.135-0.379-0.202-0.759-0.202H0.949c-0.38,0-0.634,0.063-0.76,0.189C0.063,0.791,0,1.044,0,1.424V15.424z"/>
	<path fill="#F03246" d="M16.955,12.646c-0.214-0.332-0.32-1.074-0.32-2.229c0-1.14,0.11-1.878,0.332-2.219
		c0.221-0.34,0.562-0.51,1.021-0.51c0.442,0,0.771,0.17,0.984,0.51c0.214,0.341,0.32,1.08,0.32,2.219
		c0,1.188-0.106,1.938-0.32,2.255c-0.213,0.316-0.542,0.475-0.984,0.475C17.513,13.146,17.168,12.979,16.955,12.646 M22.697,15.316
		c1.068-0.908,1.603-2.543,1.603-4.899c0-2.31-0.538-3.927-1.613-4.853c-1.076-0.925-2.643-1.388-4.698-1.388
		c-2.041,0-3.61,0.455-4.711,1.364c-1.099,0.91-1.648,2.535-1.648,4.876c0,2.342,0.546,3.973,1.637,4.889
		c1.092,0.918,2.666,1.377,4.723,1.377C20.06,16.682,21.63,16.229,22.697,15.316"/>
	<path fill="#F03246" d="M35.12,16.018c0.079-0.174,0.117-0.41,0.117-0.711v-1.732c0-0.428-0.047-0.704-0.143-0.831
		c-0.095-0.126-0.293-0.188-0.593-0.188c-0.223,0-0.437,0.021-0.642,0.059c-0.206,0.041-0.467,0.061-0.782,0.061
		c-0.349,0-0.594-0.078-0.735-0.236s-0.214-0.412-0.214-0.76V8.661h2.16c0.379,0,0.632-0.067,0.759-0.201
		c0.126-0.135,0.188-0.384,0.188-0.747V5.458c0-0.364-0.062-0.613-0.188-0.747c-0.127-0.135-0.38-0.202-0.759-0.202h-2.16V2.562
		c0-0.38-0.067-0.633-0.202-0.759c-0.134-0.127-0.383-0.19-0.747-0.19h-3.085c-0.363,0-0.613,0.063-0.747,0.19
		c-0.135,0.126-0.202,0.379-0.202,0.759v1.946H25.96c-0.38,0-0.633,0.063-0.759,0.189c-0.127,0.127-0.19,0.38-0.19,0.76v2.255
		c0,0.379,0.063,0.633,0.19,0.759C25.327,8.598,25.58,8.66,25.96,8.66h1.187v3.133c0,1.756,0.346,3.01,1.032,3.762
		c0.688,0.752,2.029,1.127,4.022,1.127c0.601,0,1.114-0.031,1.542-0.096c0.428-0.062,0.72-0.127,0.879-0.189
		C34.874,16.318,35.041,16.191,35.12,16.018"/>
	<path fill="#F03246" d="M41.491,12.646c-0.215-0.332-0.32-1.074-0.32-2.229c0-1.14,0.109-1.878,0.333-2.219
		c0.221-0.34,0.561-0.51,1.02-0.51c0.442,0,0.771,0.17,0.985,0.51c0.213,0.341,0.32,1.08,0.32,2.219c0,1.188-0.107,1.938-0.32,2.255
		c-0.214,0.316-0.543,0.475-0.985,0.475C42.049,13.146,41.704,12.979,41.491,12.646 M47.234,15.316
		c1.067-0.908,1.603-2.543,1.603-4.899c0-2.31-0.538-3.927-1.613-4.853c-1.077-0.925-2.643-1.388-4.699-1.388
		c-2.041,0-3.609,0.455-4.711,1.364c-1.099,0.91-1.647,2.535-1.647,4.876c0,2.342,0.546,3.973,1.638,4.889
		c1.091,0.918,2.665,1.377,4.722,1.377C44.596,16.682,46.166,16.229,47.234,15.316"/>
	<path fill="#F03246" d="M55.386,11.65l2.207,4.082c0.156,0.301,0.318,0.482,0.484,0.545c0.168,0.063,0.446,0.096,0.844,0.096h3.274
		c0.347,0,0.589-0.039,0.724-0.118c0.133-0.079,0.201-0.245,0.201-0.499c0-0.221-0.08-0.445-0.236-0.676
		c-0.158-0.229-0.332-0.494-0.523-0.795l-2.87-4.391l2.682-3.417c0.285-0.363,0.49-0.648,0.617-0.854s0.188-0.396,0.188-0.569
		c0-0.206-0.055-0.348-0.166-0.428c-0.11-0.079-0.285-0.118-0.521-0.118h-3.133c-0.429,0-0.729,0.035-0.9,0.107
		c-0.176,0.07-0.365,0.265-0.57,0.58l-2.301,3.441V0.949c0-0.38-0.063-0.633-0.191-0.76C55.068,0.063,54.816,0,54.435,0h-3.084
		c-0.379,0-0.633,0.063-0.76,0.189c-0.127,0.127-0.189,0.38-0.189,0.76v14.475c0,0.381,0.066,0.633,0.201,0.76
		s0.385,0.189,0.748,0.189h3.084c0.365,0,0.613-0.062,0.748-0.189s0.203-0.379,0.203-0.76V11.65z"/>
	<path fill="#F03246" d="M68.519,12.646c-0.213-0.332-0.319-1.074-0.319-2.229c0-1.14,0.11-1.878,0.331-2.219
		c0.222-0.34,0.562-0.51,1.021-0.51c0.441,0,0.77,0.17,0.984,0.51c0.213,0.341,0.319,1.08,0.319,2.219
		c0,1.188-0.106,1.938-0.319,2.255c-0.216,0.316-0.543,0.475-0.984,0.475C69.078,13.146,68.732,12.979,68.519,12.646 M74.261,15.316
		c1.068-0.908,1.602-2.543,1.602-4.899c0-2.31-0.536-3.927-1.612-4.853c-1.076-0.925-2.642-1.388-4.697-1.388
		c-2.041,0-3.611,0.455-4.711,1.364c-1.1,0.91-1.65,2.535-1.65,4.876c0,2.342,0.547,3.973,1.64,4.889
		c1.092,0.918,2.664,1.377,4.723,1.377C71.625,16.682,73.195,16.229,74.261,15.316"/>
	<path fill="#F03246" d="M76.718,3.204c0,0.379,0.062,0.633,0.189,0.759c0.127,0.127,0.379,0.189,0.76,0.189h1.281v8.069h-1.544
		c-0.379,0-0.633,0.062-0.758,0.189c-0.129,0.126-0.19,0.379-0.19,0.759v2.254c0,0.38,0.062,0.634,0.19,0.761
		c0.125,0.127,0.379,0.189,0.758,0.189h8.068c0.379,0,0.633-0.066,0.76-0.202c0.125-0.135,0.189-0.384,0.189-0.748V13.17
		c0-0.363-0.064-0.613-0.189-0.747c-0.127-0.135-0.381-0.202-0.76-0.202H83.93V0.949c0-0.38-0.062-0.633-0.188-0.76
		C83.615,0.063,83.363,0,82.982,0h-5.313c-0.381,0-0.633,0.063-0.76,0.189c-0.128,0.127-0.189,0.38-0.189,0.76L76.718,3.204
		L76.718,3.204z"/>
	<path fill="#F03246" d="M92.32,12.646C92.107,12.314,92,11.572,92,10.417c0-1.14,0.11-1.878,0.332-2.219
		c0.223-0.34,0.562-0.51,1.021-0.51c0.441,0,0.771,0.17,0.984,0.51c0.213,0.341,0.32,1.08,0.32,2.219
		c0,1.188-0.107,1.938-0.32,2.255c-0.215,0.316-0.543,0.475-0.984,0.475C92.878,13.146,92.533,12.979,92.32,12.646 M98.062,15.316
		c1.068-0.908,1.603-2.543,1.603-4.899c0-2.31-0.537-3.927-1.613-4.853c-1.076-0.925-2.641-1.388-4.697-1.388
		c-2.041,0-3.61,0.455-4.711,1.364c-1.1,0.91-1.649,2.535-1.649,4.876c0,2.342,0.547,3.973,1.639,4.889
		c1.092,0.918,2.666,1.377,4.723,1.377C95.425,16.682,96.996,16.229,98.062,15.316"/>
</g>
</svg>
